<svg width="805" height="75" viewBox="0 0 805 75" fill="none" xmlns="http://www.w3.org/2000/svg">
<rect opacity="0.9" x="131" y="23" width="674" height="43" rx="4" fill="#040404" fill-opacity="0.8"/>
<rect x="150.5" y="35.5" width="440" height="18" stroke="white"/>
<rect x="609" y="47" width="4" height="7" fill="#00ACEE"/>
<rect x="616" y="45" width="5" height="9" fill="#00ACEE"/>
<rect x="623" y="42" width="5" height="12" fill="#00ACEE"/>
<rect x="631" y="38" width="5" height="16" fill="#C4C4C4"/>
<rect x="639" y="35" width="5" height="19" fill="#C4C4C4"/>
<path d="M681.745 48.0234L679.95 46.9818C680.131 45.9996 680.131 44.9919 679.95 44.0097L681.745 42.9682C681.951 42.8496 682.044 42.604 681.976 42.3754C681.509 40.8682 680.713 39.5049 679.672 38.3702C679.512 38.1966 679.251 38.1543 679.049 38.2728L677.254 39.3143C676.5 38.6623 675.633 38.1585 674.693 37.8283V35.7494C674.693 35.5123 674.529 35.3049 674.298 35.2541C672.752 34.9069 671.168 34.9238 669.698 35.2541C669.466 35.3049 669.302 35.5123 669.302 35.7494V37.8325C668.367 38.167 667.499 38.6708 666.741 39.3186L664.951 38.277C664.744 38.1585 664.488 38.1966 664.327 38.3744C663.287 39.5049 662.491 40.8682 662.023 42.3796C661.952 42.6083 662.049 42.8538 662.255 42.9724L664.049 44.0139C663.868 44.9962 663.868 46.0038 664.049 46.9861L662.255 48.0276C662.049 48.1462 661.956 48.3917 662.023 48.6203C662.491 50.1276 663.287 51.4909 664.327 52.6256C664.488 52.7992 664.749 52.8415 664.951 52.723L666.745 51.6814C667.499 52.3334 668.367 52.8373 669.306 53.1675V55.2506C669.306 55.4877 669.47 55.6951 669.702 55.7459C671.248 56.0931 672.832 56.0762 674.302 55.7459C674.533 55.6951 674.698 55.4877 674.698 55.2506V53.1675C675.633 52.833 676.5 52.3292 677.259 51.6814L679.053 52.723C679.259 52.8415 679.516 52.8034 679.676 52.6256C680.717 51.4951 681.513 50.1318 681.98 48.6203C682.044 48.3875 681.951 48.1419 681.745 48.0234ZM671.998 48.8828C670.14 48.8828 668.628 47.3629 668.628 45.4958C668.628 43.6286 670.14 42.1087 671.998 42.1087C673.855 42.1087 675.367 43.6286 675.367 45.4958C675.367 47.3629 673.855 48.8828 671.998 48.8828Z" fill="white"/>
<path fill-rule="evenodd" clip-rule="evenodd" d="M724.571 36.9738C725.882 36.051 726.286 34.5706 725.472 33.6671C724.658 32.7641 722.935 32.7798 721.623 33.7022C720.311 34.6257 719.907 36.1059 720.721 37.0089C721.535 37.9124 723.258 37.8967 724.571 36.9738ZM782.718 50.1624C782.022 51.2677 780.815 52.3645 779.37 52.6442C776.548 53.1909 776.761 49.5597 777.235 48.0486C777.438 47.3963 777.738 46.8544 778.052 46.3616C778.68 45.3759 779.56 44.2929 780.822 43.9088C780.908 43.8828 780.995 43.8599 781.085 43.8405C782.37 43.5615 783.288 44.3642 783.696 45.3837C784.35 47.0186 783.625 48.7232 782.718 50.1624V50.1624ZM763.61 44.2748C764.41 43.9118 765.739 43.759 766.005 44.958C766.306 46.3192 763.793 48.9605 760.282 50.201C758.943 48.0388 761.442 45.2967 763.61 44.2748V44.2748ZM788.976 45.8838C788.819 43.863 787.875 41.8908 785.768 40.9898C783.832 40.1617 780.162 40.3804 778.209 41.1275C771.163 44.052 771.574 49.3568 771.311 50.5967C770.058 51.3372 767.934 51.8832 766.011 52.1121C764.32 52.3114 762.487 52.2353 761.453 51.5262C764.963 50.2935 773.646 46.4787 770.805 42.0232C768.014 37.4782 752.226 41.9719 754.75 51.8826C753.303 52.681 752.726 52.4509 752.373 51.217C752.311 49.0215 752.95 47.3333 753.308 45.397C753.428 44.7501 753.578 44.0543 753.503 43.3658C753.373 42.1802 752.411 41.0012 750.931 40.8864C746.714 40.8864 744.468 43.6032 743.41 44.2265C742.989 43.3308 744.46 40.9215 740.176 40.9215C736.909 40.7421 734.737 42.6766 733.162 43.8822C732.945 43.1773 732.871 42.3644 732.538 41.7127C732.26 41.1679 731.713 40.5675 731.018 40.4727C730.316 40.3779 729.535 40.8037 729.031 41.1275C727.483 42.1233 725.91 43.4353 724.862 44.6734C725.43 45.6066 727.055 44.9627 728.096 44.8462C728.051 45.7612 727.969 46.7179 727.823 47.6353C727.594 49.0759 727.549 50.3207 726.109 51.217C725.242 51.7551 724.029 52.2172 723.576 51.0448C723.139 49.9088 723.513 48.5733 723.763 47.4361C724.075 46.0198 724.242 44.5876 724.472 43.1592C724.596 42.394 724.749 41.796 724.124 41.1474C723.641 40.6467 722.882 40.3417 722.134 40.4045C720.144 40.5717 719.207 42.1741 717.809 42.9526C718.518 40.4619 716.262 39.7535 714.003 40.0585C713.106 40.1792 710.073 41.3618 709.041 44.1927C710.87 44.0682 711.828 44.308 711.652 46.0856C711.578 46.8308 711.153 47.645 710.678 48.4272C710.13 49.3284 709.1 51.0968 707.752 49.8224C706.537 48.6748 706.63 46.48 706.353 45.0183C706.197 44.1975 706.033 43.1767 705.729 42.3324C705.467 41.6059 704.867 40.7331 704.131 40.5422C703.341 40.3375 702.366 40.6576 701.793 40.9553C699.968 41.9036 698.579 43.2528 697 44.3648V44.4682C697.312 44.7314 697.396 45.1657 697.858 45.2248C698.944 45.365 699.979 44.3291 700.701 45.4085C701.141 46.0669 701.278 46.7886 701.559 47.4977C701.935 48.4447 702.226 49.4745 702.533 50.5622C703.054 52.4037 703.693 55.1556 705.495 55.8308C706.415 56.1751 707.796 55.7148 708.496 55.3482C710.392 54.3559 711.868 52.9202 713.133 51.4573C714.387 50.0066 715.649 48.3095 716.64 46.5681C717.246 45.501 717.652 44.5979 719.367 44.8117C719.255 47.0326 718.471 48.9164 718.004 50.8371C717.839 51.5142 717.626 52.2515 717.614 52.9383C717.593 54.1663 718.173 55.3694 719.211 55.6242C719.98 55.8115 721.049 55.7408 721.783 55.6925C724.269 55.533 726.45 54.0835 727.801 52.8901C728.548 53.6873 729.492 55.7282 733.018 55.7282C731.4 52.5971 732.44 45.0902 736.786 45.4321C738.058 45.8651 737.486 47.7489 737.215 48.8059C737.027 49.5372 735.33 56.2741 741.929 55.7619C741.929 54.4833 741.355 47.3902 745.682 45.5088C746.07 45.3306 747.427 45.3227 747.502 45.9134C747.839 48.5897 746.442 50.9881 746.489 53.6952C746.524 57.9658 754.002 54.3793 755.647 53.5586C756.59 54.1722 759.378 56.5973 765.777 55.3137C766.981 55.0463 768.041 54.7642 769.012 54.3498C770.032 53.9149 770.977 53.4371 772.012 53.1443C771.871 53.1848 773.234 54.6271 773.384 54.7285C774.038 55.1737 774.83 55.4648 775.611 55.6864C777.427 56.1998 779.356 56.012 781.186 55.629C784.881 54.8548 787.38 52.3942 788.524 49.2637C788.892 48.255 789.068 47.061 788.976 45.8838V45.8838Z" fill="white"/>
<mask id="path-10-inside-1_39_37" fill="white">
<path fill-rule="evenodd" clip-rule="evenodd" d="M190 0H109V27H142.805L150 36L157.195 27H190V0Z"/>
</mask>
<path fill-rule="evenodd" clip-rule="evenodd" d="M190 0H109V27H142.805L150 36L157.195 27H190V0Z" fill="white"/>
<path d="M109 0V-1H108V0H109ZM190 0H191V-1H190V0ZM109 27H108V28H109V27ZM142.805 27L143.586 26.3756L143.286 26H142.805V27ZM150 36L149.219 36.6244L150 37.6015L150.781 36.6244L150 36ZM157.195 27V26H156.714L156.414 26.3756L157.195 27ZM190 27V28H191V27H190ZM109 1H190V-1H109V1ZM110 27V0H108V27H110ZM142.805 26H109V28H142.805V26ZM142.024 27.6244L149.219 36.6244L150.781 35.3756L143.586 26.3756L142.024 27.6244ZM150.781 36.6244L157.976 27.6244L156.414 26.3756L149.219 35.3756L150.781 36.6244ZM190 26H157.195V28H190V26ZM189 0V27H191V0H189Z" fill="black" mask="url(#path-10-inside-1_39_37)"/>
<path d="M122.559 12.6313C122.559 13.4956 122.495 14.2695 122.368 14.9531C122.246 15.6367 122.046 16.2153 121.768 16.689C121.494 17.1626 121.14 17.5239 120.706 17.7729C120.271 18.022 119.744 18.1465 119.124 18.1465C118.547 18.1465 118.044 18.022 117.615 17.7729C117.19 17.5239 116.836 17.1626 116.553 16.689C116.274 16.2153 116.064 15.6367 115.923 14.9531C115.786 14.2695 115.718 13.4956 115.718 12.6313C115.718 11.7671 115.779 10.9932 115.901 10.3096C116.028 9.62598 116.226 9.0498 116.494 8.58105C116.768 8.10742 117.119 7.74609 117.549 7.49707C117.983 7.24805 118.508 7.12354 119.124 7.12354C119.705 7.12354 120.21 7.24805 120.64 7.49707C121.069 7.74121 121.426 8.1001 121.709 8.57373C121.992 9.04248 122.205 9.61865 122.346 10.3022C122.488 10.9858 122.559 11.7622 122.559 12.6313ZM117.073 12.6313C117.073 13.3638 117.109 14.0034 117.183 14.5503C117.256 15.0972 117.373 15.5537 117.534 15.9199C117.695 16.2812 117.905 16.5547 118.164 16.7402C118.428 16.9209 118.748 17.0112 119.124 17.0112C119.5 17.0112 119.819 16.9209 120.083 16.7402C120.347 16.5596 120.562 16.2886 120.728 15.9272C120.898 15.5659 121.021 15.1118 121.094 14.5649C121.172 14.0132 121.211 13.3687 121.211 12.6313C121.211 11.8989 121.172 11.2593 121.094 10.7124C121.021 10.1655 120.898 9.71143 120.728 9.3501C120.562 8.98877 120.347 8.71777 120.083 8.53711C119.819 8.35645 119.5 8.26611 119.124 8.26611C118.748 8.26611 118.428 8.35645 118.164 8.53711C117.905 8.71777 117.695 8.98877 117.534 9.3501C117.373 9.71143 117.256 10.1655 117.183 10.7124C117.109 11.2593 117.073 11.8989 117.073 12.6313ZM127.119 18H125.83V11.313C125.83 11.103 125.83 10.8784 125.83 10.6392C125.835 10.3999 125.84 10.1631 125.845 9.92871C125.855 9.68945 125.862 9.4624 125.867 9.24756C125.877 9.02783 125.884 8.83496 125.889 8.66895C125.806 8.75684 125.733 8.83252 125.669 8.896C125.606 8.95947 125.54 9.02051 125.471 9.0791C125.408 9.1377 125.339 9.20117 125.266 9.26953C125.193 9.33301 125.105 9.40869 125.003 9.49658L123.919 10.3828L123.215 9.48193L126.021 7.29199H127.119V18ZM133.5 17.187C133.5 17.0015 133.525 16.8452 133.573 16.7183C133.622 16.5864 133.688 16.4814 133.771 16.4033C133.854 16.3203 133.952 16.2617 134.064 16.2275C134.176 16.1885 134.298 16.1689 134.43 16.1689C134.557 16.1689 134.677 16.1885 134.789 16.2275C134.906 16.2617 135.006 16.3203 135.089 16.4033C135.172 16.4814 135.238 16.5864 135.287 16.7183C135.336 16.8452 135.36 17.0015 135.36 17.187C135.36 17.3677 135.336 17.5239 135.287 17.6558C135.238 17.7827 135.172 17.8877 135.089 17.9707C135.006 18.0537 134.906 18.1147 134.789 18.1538C134.677 18.1929 134.557 18.2124 134.43 18.2124C134.298 18.2124 134.176 18.1929 134.064 18.1538C133.952 18.1147 133.854 18.0537 133.771 17.9707C133.688 17.8877 133.622 17.7827 133.573 17.6558C133.525 17.5239 133.5 17.3677 133.5 17.187ZM133.5 10.771C133.5 10.5806 133.525 10.4219 133.573 10.2949C133.622 10.1631 133.688 10.0581 133.771 9.97998C133.854 9.89697 133.952 9.83838 134.064 9.8042C134.176 9.77002 134.298 9.75293 134.43 9.75293C134.557 9.75293 134.677 9.77002 134.789 9.8042C134.906 9.83838 135.006 9.89697 135.089 9.97998C135.172 10.0581 135.238 10.1631 135.287 10.2949C135.336 10.4219 135.36 10.5806 135.36 10.771C135.36 10.9517 135.336 11.1055 135.287 11.2324C135.238 11.3594 135.172 11.4644 135.089 11.5474C135.006 11.6304 134.906 11.6914 134.789 11.7305C134.677 11.7695 134.557 11.7891 134.43 11.7891C134.298 11.7891 134.176 11.7695 134.064 11.7305C133.952 11.6914 133.854 11.6304 133.771 11.5474C133.688 11.4644 133.622 11.3594 133.573 11.2324C133.525 11.1055 133.5 10.9517 133.5 10.771ZM146.26 12.6313C146.26 13.4956 146.197 14.2695 146.07 14.9531C145.948 15.6367 145.748 16.2153 145.469 16.689C145.196 17.1626 144.842 17.5239 144.407 17.7729C143.973 18.022 143.445 18.1465 142.825 18.1465C142.249 18.1465 141.746 18.022 141.317 17.7729C140.892 17.5239 140.538 17.1626 140.254 16.689C139.976 16.2153 139.766 15.6367 139.625 14.9531C139.488 14.2695 139.42 13.4956 139.42 12.6313C139.42 11.7671 139.481 10.9932 139.603 10.3096C139.73 9.62598 139.927 9.0498 140.196 8.58105C140.469 8.10742 140.821 7.74609 141.251 7.49707C141.685 7.24805 142.21 7.12354 142.825 7.12354C143.406 7.12354 143.912 7.24805 144.341 7.49707C144.771 7.74121 145.128 8.1001 145.411 8.57373C145.694 9.04248 145.906 9.61865 146.048 10.3022C146.19 10.9858 146.26 11.7622 146.26 12.6313ZM140.775 12.6313C140.775 13.3638 140.811 14.0034 140.884 14.5503C140.958 15.0972 141.075 15.5537 141.236 15.9199C141.397 16.2812 141.607 16.5547 141.866 16.7402C142.129 16.9209 142.449 17.0112 142.825 17.0112C143.201 17.0112 143.521 16.9209 143.785 16.7402C144.048 16.5596 144.263 16.2886 144.429 15.9272C144.6 15.5659 144.722 15.1118 144.796 14.5649C144.874 14.0132 144.913 13.3687 144.913 12.6313C144.913 11.8989 144.874 11.2593 144.796 10.7124C144.722 10.1655 144.6 9.71143 144.429 9.3501C144.263 8.98877 144.048 8.71777 143.785 8.53711C143.521 8.35645 143.201 8.26611 142.825 8.26611C142.449 8.26611 142.129 8.35645 141.866 8.53711C141.607 8.71777 141.397 8.98877 141.236 9.3501C141.075 9.71143 140.958 10.1655 140.884 10.7124C140.811 11.2593 140.775 11.8989 140.775 12.6313ZM154.421 18H153.132V11.313C153.132 11.103 153.132 10.8784 153.132 10.6392C153.137 10.3999 153.142 10.1631 153.147 9.92871C153.156 9.68945 153.164 9.4624 153.169 9.24756C153.178 9.02783 153.186 8.83496 153.191 8.66895C153.108 8.75684 153.034 8.83252 152.971 8.896C152.907 8.95947 152.841 9.02051 152.773 9.0791C152.71 9.1377 152.641 9.20117 152.568 9.26953C152.495 9.33301 152.407 9.40869 152.304 9.49658L151.22 10.3828L150.517 9.48193L153.322 7.29199H154.421V18ZM160.802 17.187C160.802 17.0015 160.826 16.8452 160.875 16.7183C160.924 16.5864 160.99 16.4814 161.073 16.4033C161.156 16.3203 161.254 16.2617 161.366 16.2275C161.478 16.1885 161.6 16.1689 161.732 16.1689C161.859 16.1689 161.979 16.1885 162.091 16.2275C162.208 16.2617 162.308 16.3203 162.391 16.4033C162.474 16.4814 162.54 16.5864 162.589 16.7183C162.638 16.8452 162.662 17.0015 162.662 17.187C162.662 17.3677 162.638 17.5239 162.589 17.6558C162.54 17.7827 162.474 17.8877 162.391 17.9707C162.308 18.0537 162.208 18.1147 162.091 18.1538C161.979 18.1929 161.859 18.2124 161.732 18.2124C161.6 18.2124 161.478 18.1929 161.366 18.1538C161.254 18.1147 161.156 18.0537 161.073 17.9707C160.99 17.8877 160.924 17.7827 160.875 17.6558C160.826 17.5239 160.802 17.3677 160.802 17.187ZM160.802 10.771C160.802 10.5806 160.826 10.4219 160.875 10.2949C160.924 10.1631 160.99 10.0581 161.073 9.97998C161.156 9.89697 161.254 9.83838 161.366 9.8042C161.478 9.77002 161.6 9.75293 161.732 9.75293C161.859 9.75293 161.979 9.77002 162.091 9.8042C162.208 9.83838 162.308 9.89697 162.391 9.97998C162.474 10.0581 162.54 10.1631 162.589 10.2949C162.638 10.4219 162.662 10.5806 162.662 10.771C162.662 10.9517 162.638 11.1055 162.589 11.2324C162.54 11.3594 162.474 11.4644 162.391 11.5474C162.308 11.6304 162.208 11.6914 162.091 11.7305C161.979 11.7695 161.859 11.7891 161.732 11.7891C161.6 11.7891 161.478 11.7695 161.366 11.7305C161.254 11.6914 161.156 11.6304 161.073 11.5474C160.99 11.4644 160.924 11.3594 160.875 11.2324C160.826 11.1055 160.802 10.9517 160.802 10.771ZM173.386 18H166.707V16.8574L169.27 14.0669C169.636 13.6714 169.963 13.3101 170.252 12.9829C170.54 12.6558 170.784 12.3359 170.984 12.0234C171.189 11.7109 171.345 11.3984 171.453 11.0859C171.56 10.7686 171.614 10.4243 171.614 10.0532C171.614 9.76514 171.572 9.51123 171.489 9.2915C171.406 9.07178 171.287 8.88623 171.13 8.73486C170.979 8.57861 170.798 8.46143 170.588 8.3833C170.379 8.30518 170.144 8.26611 169.885 8.26611C169.421 8.26611 169.002 8.36133 168.626 8.55176C168.254 8.7373 167.9 8.97656 167.564 9.26953L166.817 8.39795C167.012 8.22217 167.222 8.05859 167.446 7.90723C167.671 7.75098 167.913 7.6167 168.171 7.50439C168.43 7.39209 168.704 7.3042 168.992 7.24072C169.28 7.17236 169.583 7.13818 169.9 7.13818C170.369 7.13818 170.791 7.2041 171.167 7.33594C171.548 7.46777 171.87 7.6582 172.134 7.90723C172.398 8.15137 172.6 8.45166 172.742 8.80811C172.888 9.15967 172.962 9.55762 172.962 10.002C172.962 10.417 172.896 10.8125 172.764 11.1885C172.637 11.5645 172.459 11.9355 172.229 12.3018C172.004 12.6631 171.733 13.0269 171.416 13.3931C171.104 13.7593 170.764 14.1401 170.398 14.5356L168.34 16.7256V16.7842H173.386V18ZM177.343 13.4224C177.343 12.9097 177.367 12.3994 177.416 11.8916C177.47 11.3838 177.56 10.8979 177.687 10.4341C177.819 9.96533 177.997 9.53076 178.222 9.13037C178.446 8.72998 178.732 8.3833 179.079 8.09033C179.425 7.79248 179.84 7.56055 180.324 7.39453C180.807 7.22363 181.374 7.13818 182.023 7.13818C182.116 7.13818 182.218 7.14062 182.331 7.14551C182.443 7.15039 182.555 7.16016 182.668 7.1748C182.785 7.18457 182.895 7.19922 182.997 7.21875C183.105 7.2334 183.2 7.25293 183.283 7.27734V8.4126C183.112 8.354 182.919 8.31006 182.704 8.28076C182.489 8.25146 182.277 8.23682 182.067 8.23682C181.628 8.23682 181.239 8.29053 180.902 8.39795C180.57 8.50049 180.282 8.64697 180.038 8.8374C179.794 9.02783 179.589 9.25488 179.423 9.51855C179.262 9.78223 179.13 10.0752 179.027 10.3975C178.925 10.7148 178.849 11.0542 178.8 11.4155C178.752 11.7769 178.72 12.1528 178.705 12.5435H178.793C178.891 12.3677 179.008 12.2041 179.145 12.0527C179.286 11.8965 179.45 11.7646 179.635 11.6572C179.821 11.5449 180.028 11.457 180.258 11.3936C180.492 11.3301 180.754 11.2983 181.042 11.2983C181.505 11.2983 181.925 11.3716 182.301 11.5181C182.677 11.6597 182.997 11.8696 183.261 12.1479C183.525 12.4263 183.727 12.7681 183.869 13.1733C184.015 13.5737 184.088 14.0327 184.088 14.5503C184.088 15.1069 184.013 15.6074 183.861 16.0518C183.71 16.4961 183.493 16.8745 183.21 17.187C182.926 17.4946 182.585 17.7314 182.184 17.8975C181.784 18.0635 181.335 18.1465 180.837 18.1465C180.348 18.1465 179.889 18.0513 179.46 17.8608C179.035 17.6704 178.666 17.3799 178.354 16.9893C178.041 16.5986 177.795 16.1079 177.614 15.5171C177.433 14.9263 177.343 14.228 177.343 13.4224ZM180.822 17.0259C181.115 17.0259 181.381 16.9771 181.62 16.8794C181.864 16.7769 182.074 16.6255 182.25 16.4253C182.426 16.2202 182.56 15.9639 182.653 15.6562C182.751 15.3438 182.799 14.9751 182.799 14.5503C182.799 14.2085 182.758 13.9033 182.675 13.6348C182.597 13.3613 182.477 13.1294 182.316 12.939C182.155 12.7485 181.952 12.6021 181.708 12.4995C181.469 12.397 181.188 12.3457 180.866 12.3457C180.539 12.3457 180.238 12.4043 179.965 12.5215C179.696 12.6338 179.467 12.7827 179.276 12.9683C179.086 13.1489 178.937 13.3564 178.83 13.5908C178.727 13.8252 178.676 14.0596 178.676 14.2939C178.676 14.6211 178.72 14.9482 178.808 15.2754C178.9 15.5977 179.035 15.8882 179.211 16.147C179.391 16.4058 179.616 16.6182 179.884 16.7842C180.153 16.9453 180.465 17.0259 180.822 17.0259Z" fill="black"/>
<rect y="13" width="95" height="62" rx="7" fill="#040404" fill-opacity="0.8"/>
<path d="M68 45L38 62.3205L38 27.6795L68 45Z" fill="white"/>
</svg>
