<?xml version="1.0" encoding="UTF-8" standalone="no"?><!DOCTYPE svg PUBLIC "-//W3C//DTD SVG 1.1//EN" "http://www.w3.org/Graphics/SVG/1.1/DTD/svg11.dtd"><svg width="100%" height="100%" viewBox="0 0 2134 2134" version="1.1" xmlns="http://www.w3.org/2000/svg" xmlns:xlink="http://www.w3.org/1999/xlink" xml:space="preserve" xmlns:serif="http://www.serif.com/" style="fill-rule:evenodd;clip-rule:evenodd;stroke-linejoin:round;stroke-miterlimit:2;"><path d="M1066.67,33.333c-570.834,0 -1033.33,462.5 -1033.33,1033.33c0,570.833 462.5,1033.33 1033.33,1033.33c570.833,0 1033.33,-462.5 1033.33,-1033.33c0,-570.834 -462.5,-1033.33 -1033.33,-1033.33Zm-0,1866.67c-460.417,0 -833.334,-372.917 -833.334,-833.333c0,-460.417 372.917,-833.334 833.334,-833.334c460.416,0 833.333,372.917 833.333,833.334c0,460.416 -372.917,833.333 -833.333,833.333Zm257.5,-435l-353.75,-257.083c-12.917,-9.584 -20.417,-24.584 -20.417,-40.417l0,-684.167c0,-27.5 22.5,-50 50,-50l133.333,0c27.5,0 50,22.5 50,50l0,590.417l278.334,202.5c22.5,16.25 27.083,47.5 10.833,70l-78.333,107.917c-16.25,22.083 -47.5,27.083 -70,10.833Z" style="fill:#bababa;fill-rule:nonzero;"/></svg>