<?xml version="1.0" encoding="UTF-8" standalone="no"?><!DOCTYPE svg PUBLIC "-//W3C//DTD SVG 1.1//EN" "http://www.w3.org/Graphics/SVG/1.1/DTD/svg11.dtd"><svg width="100%" height="100%" viewBox="0 0 417 417" version="1.1" xmlns="http://www.w3.org/2000/svg" xmlns:xlink="http://www.w3.org/1999/xlink" xml:space="preserve" xmlns:serif="http://www.serif.com/" style="fill-rule:evenodd;clip-rule:evenodd;stroke-linejoin:round;stroke-miterlimit:2;"><path d="M93.268,416.667l-86.385,-0l-0,-278.187l86.385,-0l0,278.187Zm-43.239,-316.135c-27.623,0 -50.029,-22.88 -50.029,-50.503c0,-27.445 22.584,-50.029 50.029,-50.029c27.445,0 50.029,22.584 50.029,50.029c0,27.623 -22.415,50.503 -50.029,50.503Zm366.647,316.135l-86.293,-0l0,-135.42c0,-32.274 -0.651,-73.662 -44.913,-73.662c-44.914,-0 -51.797,35.064 -51.797,71.337l0,137.745l-86.292,-0l-0,-278.187l82.851,-0l0,37.947l1.209,-0c11.533,-21.857 39.705,-44.923 81.736,-44.923c87.427,0 103.499,57.572 103.499,132.35l-0,152.813Z" style="fill:#fff;fill-rule:nonzero;"/></svg>