<?xml version="1.0" encoding="UTF-8" standalone="no"?><!DOCTYPE svg PUBLIC "-//W3C//DTD SVG 1.1//EN" "http://www.w3.org/Graphics/SVG/1.1/DTD/svg11.dtd"><svg width="100%" height="100%" viewBox="0 0 2134 2134" version="1.1" xmlns="http://www.w3.org/2000/svg" xmlns:xlink="http://www.w3.org/1999/xlink" xml:space="preserve" xmlns:serif="http://www.serif.com/" style="fill-rule:evenodd;clip-rule:evenodd;stroke-linejoin:round;stroke-miterlimit:2;"><path d="M2002.8,1450.73l-425.65,-180.859c-37.244,-15.737 -80.808,-5.093 -106.412,25.999l-188.502,228.334c-295.77,-138.258 -533.949,-374.397 -673.402,-667.633l230.307,-186.888c31.428,-25.342 42.176,-68.583 26.224,-105.501l-182.422,-422.004c-17.562,-39.918 -61.678,-62.026 -104.512,-52.374l-395.247,90.43c-41.242,9.442 -70.698,46.166 -70.688,88.131c-0,966.465 790.113,1748.3 1763.41,1748.3c42.342,0.027 79.404,-29.181 88.931,-70.083l91.211,-391.861c9.672,-42.672 -12.792,-86.548 -53.245,-103.994Z" style="fill:#fff;fill-rule:nonzero;"/></svg>