<?xml version="1.0" encoding="UTF-8" standalone="no"?><!DOCTYPE svg PUBLIC "-//W3C//DTD SVG 1.1//EN" "http://www.w3.org/Graphics/SVG/1.1/DTD/svg11.dtd"><svg width="100%" height="100%" viewBox="0 0 1600 2134" version="1.1" xmlns="http://www.w3.org/2000/svg" xmlns:xlink="http://www.w3.org/1999/xlink" xml:space="preserve" xmlns:serif="http://www.serif.com/" style="fill-rule:evenodd;clip-rule:evenodd;stroke-linejoin:round;stroke-miterlimit:2;"><path d="M841.754,0c-332.579,0 -547.992,136.263 -717.112,379.275c-30.68,44.083 -21.221,104.525 21.575,136.975l179.741,136.288c43.221,32.77 104.717,25.108 138.554,-17.284c104.371,-130.754 181.792,-206.037 344.821,-206.037c128.184,-0 286.734,82.496 286.734,206.796c-0,93.966 -77.571,142.225 -204.138,213.183c-147.596,82.75 -342.912,185.733 -342.912,443.354l-0,40.783c-0,55.23 44.771,100 100,100l301.962,0c55.229,0 100,-44.77 100,-100l0,-24.054c0,-178.583 521.95,-186.021 521.95,-669.279c0.004,-363.933 -377.504,-640 -731.175,-640Zm-41.754,1556.08c-159.15,0 -288.629,129.479 -288.629,288.629c-0,159.146 129.479,288.625 288.629,288.625c159.15,0 288.629,-129.479 288.629,-288.629c0,-159.15 -129.479,-288.625 -288.629,-288.625Z" style="fill:#bababa;fill-rule:nonzero;"/></svg>