<?xml version="1.0" encoding="UTF-8" standalone="no"?><!DOCTYPE svg PUBLIC "-//W3C//DTD SVG 1.1//EN" "http://www.w3.org/Graphics/SVG/1.1/DTD/svg11.dtd"><svg width="100%" height="100%" viewBox="0 0 8889 7220" version="1.1" xmlns="http://www.w3.org/2000/svg" xmlns:xlink="http://www.w3.org/1999/xlink" xml:space="preserve" xmlns:serif="http://www.serif.com/" style="fill-rule:evenodd;clip-rule:evenodd;stroke-linejoin:round;stroke-miterlimit:2;"><path d="M7975.17,1799.21c5.641,78.959 5.641,157.934 5.641,236.892c0,2408.33 -1833.04,5183.29 -5183.29,5183.29c-1032.15,-0 -1990.97,-298.942 -2797.52,-817.813c146.65,16.908 287.638,22.55 439.929,22.55c851.65,0 1635.64,-287.637 2261.7,-778.333c-800.904,-16.925 -1472.08,-541.459 -1703.33,-1263.4c112.813,16.908 225.604,28.191 344.063,28.191c163.558,0.001 327.133,-22.566 479.408,-62.029c-834.742,-169.22 -1460.82,-902.433 -1460.82,-1787.93l0,-22.554c242.517,135.367 524.55,219.967 823.454,231.233c-490.691,-327.137 -812.171,-885.504 -812.171,-1517.2c0,-338.404 90.23,-648.613 248.163,-919.342c896.787,1105.47 2244.79,1827.4 3756.34,1906.37c-28.196,-135.362 -45.121,-276.354 -45.121,-417.358c-0,-1003.96 812.183,-1821.77 1821.77,-1821.77c524.529,-0 998.295,219.962 1331.08,575.292c411.716,-78.959 806.529,-231.25 1156.23,-439.93c-135.383,423.021 -423.021,778.35 -800.904,1003.94c366.616,-39.462 721.946,-141.008 1049.06,-281.996c-248.125,360.954 -558.35,682.429 -913.679,941.892l-0.008,0.008Z" style="fill:#fff;fill-rule:nonzero;"/></svg>