<?xml version="1.0" encoding="UTF-8" standalone="no"?><!DOCTYPE svg PUBLIC "-//W3C//DTD SVG 1.1//EN" "http://www.w3.org/Graphics/SVG/1.1/DTD/svg11.dtd"><svg width="100%" height="100%" viewBox="0 0 2134 2134" version="1.1" xmlns="http://www.w3.org/2000/svg" xmlns:xlink="http://www.w3.org/1999/xlink" xml:space="preserve" xmlns:serif="http://www.serif.com/" style="fill-rule:evenodd;clip-rule:evenodd;stroke-linejoin:round;stroke-miterlimit:2;"><path d="M900.595,575.056c0.326,4.557 0.326,9.115 0.326,13.672c-0,138.997 -105.794,299.154 -299.154,299.154c-59.571,-0 -114.909,-17.254 -161.459,-47.2c8.464,0.976 16.601,1.301 25.391,1.301c49.153,0 94.401,-16.601 130.534,-44.921c-46.224,-0.977 -84.961,-31.25 -98.308,-72.917c6.511,0.976 13.021,1.627 19.858,1.627c9.439,-0 18.88,-1.303 27.669,-3.58c-48.177,-9.767 -84.311,-52.084 -84.311,-103.191l-0,-1.301c13.997,7.812 30.274,12.695 47.526,13.345c-28.321,-18.88 -46.875,-51.107 -46.875,-87.565c0,-19.531 5.208,-37.435 14.323,-53.06c51.758,63.802 129.558,105.468 216.796,110.026c-1.627,-7.812 -2.604,-15.949 -2.604,-24.088c0,-57.943 46.876,-105.143 105.144,-105.143c30.273,-0 57.616,12.695 76.823,33.203c23.762,-4.557 46.548,-13.347 66.731,-25.39c-7.813,24.414 -24.414,44.922 -46.224,57.942c21.16,-2.278 41.667,-8.138 60.547,-16.276c-14.321,20.833 -32.225,39.387 -52.733,54.362Z" style="fill:#fff;fill-rule:nonzero;"/></svg>