<?xml version="1.0" encoding="UTF-8" standalone="no"?><!DOCTYPE svg PUBLIC "-//W3C//DTD SVG 1.1//EN" "http://www.w3.org/Graphics/SVG/1.1/DTD/svg11.dtd"><svg width="100%" height="100%" viewBox="0 0 1867 2134" version="1.1" xmlns="http://www.w3.org/2000/svg" xmlns:xlink="http://www.w3.org/1999/xlink" xml:space="preserve" xmlns:serif="http://www.serif.com/" style="fill-rule:evenodd;clip-rule:evenodd;stroke-linejoin:round;stroke-miterlimit:2;"><path d="M933.333,1066.67c294.584,-0 533.334,-238.75 533.334,-533.334c-0,-294.583 -238.75,-533.333 -533.334,-533.333c-294.583,0 -533.333,238.75 -533.333,533.333c0,294.584 238.75,533.334 533.333,533.334Zm373.334,133.333l-69.584,0c-92.5,42.5 -195.416,66.667 -303.75,66.667c-108.333,-0 -210.833,-24.167 -303.75,-66.667l-69.583,0c-309.167,0 -560,250.833 -560,560l0,173.333c0,110.417 89.583,200 200,200l1466.67,0c110.416,0 200,-89.583 200,-200l-0,-173.333c-0,-309.167 -250.834,-560 -560,-560Z" style="fill:#bababa;fill-rule:nonzero;"/></svg>