<?xml version="1.0" encoding="UTF-8" standalone="no"?><!DOCTYPE svg PUBLIC "-//W3C//DTD SVG 1.1//EN" "http://www.w3.org/Graphics/SVG/1.1/DTD/svg11.dtd"><svg width="100%" height="100%" viewBox="0 0 1867 2134" version="1.1" xmlns="http://www.w3.org/2000/svg" xmlns:xlink="http://www.w3.org/1999/xlink" xml:space="preserve" xmlns:serif="http://www.serif.com/" style="fill-rule:evenodd;clip-rule:evenodd;stroke-linejoin:round;stroke-miterlimit:2;"><path d="M1666.67,133.333l-1466.67,0c-110.417,0 -200,89.584 -200,200l0,1466.67c0,110.417 89.583,200 200,200l1466.67,0c110.416,0 200,-89.583 200,-200l-0,-1466.67c-0,-110.416 -89.584,-200 -200,-200Z" style="fill-rule:nonzero;"/><path d="M532.836,764.583c-166.877,0 -302.084,135.207 -302.084,302.084c0,166.876 135.207,302.083 302.084,302.083c166.876,0 302.083,-135.207 302.083,-302.083c0,-166.877 -135.207,-302.084 -302.083,-302.084Z" style="fill:#fff;fill-rule:nonzero;"/><path d="M1342.06,764.583c-166.877,0 -302.084,135.207 -302.084,302.084c0,166.876 135.207,302.083 302.084,302.083c166.876,0 302.083,-135.207 302.083,-302.083c0,-166.877 -135.207,-302.084 -302.083,-302.084Z" style="fill:#fff;fill-rule:nonzero;"/></svg>